<svg width="30" height="52" viewBox="0 0 30 52" fill="none" xmlns="http://www.w3.org/2000/svg">
<path d="M28.046 5.18821C19.8276 13.1474 21.092 25.5283 21.1494 26.059L21.2644 27.0612L22.2414 27.1791C22.5287 27.2381 24.1954 27.5918 23.9655 30.2449C23.7931 32.5442 21.2644 32.898 20.2299 33.0159C19.3678 31.8367 16.5517 26.9433 16.2644 12.9116C16.2644 12.2041 16.2644 11.4966 16.2644 10.7891C16.2644 10.7891 16.4943 5.77778 16.7241 3.65533L15.0575 0L13.3333 3.53742C13.5632 5.65986 13.7931 10.6712 13.7931 10.6712C13.7931 11.3787 13.7931 12.0862 13.7931 12.7937C13.5057 26.8254 10.6897 31.7778 9.82759 32.898C8.73563 32.839 6.26437 32.4263 6.09195 30.127C5.86207 27.4739 7.52874 27.1202 7.81609 27.0612L8.7931 26.9433L8.90805 25.941C8.96552 25.4104 10.2299 13.0295 2.01149 5.0703L0 3.24263V41.3878H8.33333C9.02299 46.9887 14.023 51.1746 14.2529 51.3515L15 52L15.7471 51.3515C15.977 51.1746 21.0345 46.9887 21.6667 41.3878H30V3.24263L28.046 5.18821ZM6.6092 24.9388C5.4023 25.4104 3.96552 26.6485 3.73563 29.0068H2.41379V9.31519C6.6092 15.093 6.66667 22.4626 6.6092 24.9388ZM8.16092 37.7324L8.21839 38.9116H2.41379V31.424H3.90805C4.54023 33.7823 6.6092 34.7846 8.50575 35.1973C8.16092 36.3764 8.16092 37.5556 8.16092 37.7324ZM10.5747 37.6735C10.5747 37.0249 10.6322 36.0816 10.9195 35.4921C13.046 35.9637 13.6207 37.7324 13.7931 38.9705H10.6322L10.5747 37.6735ZM13.8506 47.4603C12.6437 45.9864 11.2069 43.8639 10.8046 41.3878H13.8506V47.4603ZM15.3448 35.0204C15.2299 35.1383 15.1149 35.3152 15 35.4921C14.8851 35.3152 14.7701 35.1973 14.6552 35.0204C14.023 34.3129 13.2759 33.7234 12.4138 33.3696C13.2184 31.9547 14.1954 29.5964 15 25.6463C15.8046 29.5964 16.7816 32.0136 17.5862 33.3696C16.7241 33.7234 15.977 34.254 15.3448 35.0204ZM16.2069 47.4014V41.3878H19.2529C18.908 43.805 17.4713 45.9274 16.2069 47.4014ZM19.4828 37.6735L19.4253 38.9116H16.2644C16.4368 37.6735 17.0115 35.9048 19.1379 35.4331C19.4253 36.0816 19.4828 37.0249 19.4828 37.6735ZM23.4483 24.9388C23.3333 22.5215 23.4483 15.1519 27.6437 9.31519V29.0068H26.3218C26.092 26.5896 24.7126 25.4104 23.4483 24.9388ZM21.8391 38.9116L21.8966 37.7324C21.8966 37.5556 21.954 36.3764 21.6092 35.1973C23.4483 34.8435 25.5172 33.7823 26.2069 31.424H27.7011V38.9116H21.8391Z" fill="#F2CD13"/>
</svg>
