<svg width="241" height="32" viewBox="0 0 241 32" fill="none" xmlns="http://www.w3.org/2000/svg">
<path d="M127.832 4.704V13.104H117.308V4.704H118.496V12.06H121.988V4.704H123.164V12.06H126.656V4.704H127.832ZM132.725 10.416H131.405V13.104H130.253V6.744H131.405V9.432H132.749L134.813 6.744H136.049L133.637 9.804L136.217 13.104H134.861L132.725 10.416ZM139.938 13.176C139.306 13.176 138.738 13.036 138.234 12.756C137.73 12.476 137.334 12.092 137.046 11.604C136.766 11.108 136.626 10.548 136.626 9.924C136.626 9.3 136.766 8.744 137.046 8.256C137.334 7.76 137.73 7.376 138.234 7.104C138.738 6.824 139.306 6.684 139.938 6.684C140.57 6.684 141.134 6.824 141.63 7.104C142.134 7.376 142.526 7.76 142.806 8.256C143.094 8.744 143.238 9.3 143.238 9.924C143.238 10.548 143.094 11.108 142.806 11.604C142.526 12.092 142.134 12.476 141.63 12.756C141.134 13.036 140.57 13.176 139.938 13.176ZM139.938 12.168C140.346 12.168 140.71 12.076 141.03 11.892C141.358 11.7 141.614 11.436 141.798 11.1C141.982 10.756 142.074 10.364 142.074 9.924C142.074 9.484 141.982 9.096 141.798 8.76C141.614 8.416 141.358 8.152 141.03 7.968C140.71 7.784 140.346 7.692 139.938 7.692C139.53 7.692 139.162 7.784 138.834 7.968C138.514 8.152 138.258 8.416 138.066 8.76C137.882 9.096 137.79 9.484 137.79 9.924C137.79 10.364 137.882 10.756 138.066 11.1C138.258 11.436 138.514 11.7 138.834 11.892C139.162 12.076 139.53 12.168 139.938 12.168ZM150.314 6.744V13.104H149.162V7.752H146.426L146.354 9.168C146.314 10.024 146.238 10.74 146.126 11.316C146.014 11.884 145.83 12.34 145.574 12.684C145.318 13.028 144.962 13.2 144.506 13.2C144.298 13.2 144.062 13.164 143.798 13.092L143.87 12.12C143.974 12.144 144.07 12.156 144.158 12.156C144.478 12.156 144.718 12.016 144.878 11.736C145.038 11.456 145.142 11.124 145.19 10.74C145.238 10.356 145.282 9.808 145.322 9.096L145.43 6.744H150.314ZM154.81 6.684C155.69 6.684 156.362 6.9 156.826 7.332C157.298 7.764 157.534 8.408 157.534 9.264V13.104H156.442V12.264C156.25 12.56 155.974 12.788 155.614 12.948C155.262 13.1 154.842 13.176 154.354 13.176C153.642 13.176 153.07 13.004 152.638 12.66C152.214 12.316 152.002 11.864 152.002 11.304C152.002 10.744 152.206 10.296 152.614 9.96C153.022 9.616 153.67 9.444 154.558 9.444H156.382V9.216C156.382 8.72 156.238 8.34 155.95 8.076C155.662 7.812 155.238 7.68 154.678 7.68C154.302 7.68 153.934 7.744 153.574 7.872C153.214 7.992 152.91 8.156 152.662 8.364L152.182 7.5C152.51 7.236 152.902 7.036 153.358 6.9C153.814 6.756 154.298 6.684 154.81 6.684ZM154.546 12.288C154.986 12.288 155.366 12.192 155.686 12C156.006 11.8 156.238 11.52 156.382 11.16V10.272H154.606C153.63 10.272 153.142 10.6 153.142 11.256C153.142 11.576 153.266 11.828 153.514 12.012C153.762 12.196 154.106 12.288 154.546 12.288ZM168.723 6.744V13.104H167.571V7.752H163.983V13.104H162.831V6.744H168.723ZM170.952 6.744H172.104V13.104H170.952V6.744ZM171.528 5.52C171.304 5.52 171.116 5.448 170.964 5.304C170.82 5.16 170.748 4.984 170.748 4.776C170.748 4.568 170.82 4.392 170.964 4.248C171.116 4.096 171.304 4.02 171.528 4.02C171.752 4.02 171.936 4.092 172.08 4.236C172.232 4.372 172.308 4.544 172.308 4.752C172.308 4.968 172.232 5.152 172.08 5.304C171.936 5.448 171.752 5.52 171.528 5.52ZM180.818 12.096V14.58H179.738V13.104H174.422V14.58H173.33V12.096H173.666C174.074 12.072 174.354 11.784 174.506 11.232C174.658 10.68 174.762 9.9 174.818 8.892L174.914 6.744H179.846V12.096H180.818ZM175.874 8.976C175.842 9.776 175.774 10.44 175.67 10.968C175.574 11.488 175.394 11.864 175.13 12.096H178.694V7.752H175.934L175.874 8.976ZM186.999 7.752H183.471V13.104H182.319V6.744H186.999V7.752ZM190.621 13.176C189.989 13.176 189.421 13.036 188.917 12.756C188.413 12.476 188.017 12.092 187.729 11.604C187.449 11.108 187.309 10.548 187.309 9.924C187.309 9.3 187.449 8.744 187.729 8.256C188.017 7.76 188.413 7.376 188.917 7.104C189.421 6.824 189.989 6.684 190.621 6.684C191.253 6.684 191.817 6.824 192.313 7.104C192.817 7.376 193.209 7.76 193.489 8.256C193.777 8.744 193.921 9.3 193.921 9.924C193.921 10.548 193.777 11.108 193.489 11.604C193.209 12.092 192.817 12.476 192.313 12.756C191.817 13.036 191.253 13.176 190.621 13.176ZM190.621 12.168C191.029 12.168 191.393 12.076 191.713 11.892C192.041 11.7 192.297 11.436 192.481 11.1C192.665 10.756 192.757 10.364 192.757 9.924C192.757 9.484 192.665 9.096 192.481 8.76C192.297 8.416 192.041 8.152 191.713 7.968C191.393 7.784 191.029 7.692 190.621 7.692C190.213 7.692 189.845 7.784 189.517 7.968C189.197 8.152 188.941 8.416 188.749 8.76C188.565 9.096 188.473 9.484 188.473 9.924C188.473 10.364 188.565 10.756 188.749 11.1C188.941 11.436 189.197 11.7 189.517 11.892C189.845 12.076 190.213 12.168 190.621 12.168ZM200.09 7.752H197.762V13.104H196.61V7.752H194.282V6.744H200.09V7.752ZM203.711 13.176C203.079 13.176 202.511 13.036 202.007 12.756C201.503 12.476 201.107 12.092 200.819 11.604C200.539 11.108 200.399 10.548 200.399 9.924C200.399 9.3 200.539 8.744 200.819 8.256C201.107 7.76 201.503 7.376 202.007 7.104C202.511 6.824 203.079 6.684 203.711 6.684C204.343 6.684 204.907 6.824 205.403 7.104C205.907 7.376 206.299 7.76 206.579 8.256C206.867 8.744 207.011 9.3 207.011 9.924C207.011 10.548 206.867 11.108 206.579 11.604C206.299 12.092 205.907 12.476 205.403 12.756C204.907 13.036 204.343 13.176 203.711 13.176ZM203.711 12.168C204.119 12.168 204.483 12.076 204.803 11.892C205.131 11.7 205.387 11.436 205.571 11.1C205.755 10.756 205.847 10.364 205.847 9.924C205.847 9.484 205.755 9.096 205.571 8.76C205.387 8.416 205.131 8.152 204.803 7.968C204.483 7.784 204.119 7.692 203.711 7.692C203.303 7.692 202.935 7.784 202.607 7.968C202.287 8.152 202.031 8.416 201.839 8.76C201.655 9.096 201.563 9.484 201.563 9.924C201.563 10.364 201.655 10.756 201.839 11.1C202.031 11.436 202.287 11.7 202.607 11.892C202.935 12.076 203.303 12.168 203.711 12.168ZM213.007 9.804C213.831 10.012 214.243 10.528 214.243 11.352C214.243 11.912 214.031 12.344 213.607 12.648C213.191 12.952 212.567 13.104 211.735 13.104H208.675V6.744H211.627C212.379 6.744 212.967 6.888 213.391 7.176C213.815 7.456 214.027 7.856 214.027 8.376C214.027 8.712 213.935 9.004 213.751 9.252C213.575 9.492 213.327 9.676 213.007 9.804ZM209.803 9.48H211.531C211.971 9.48 212.303 9.4 212.527 9.24C212.759 9.08 212.875 8.848 212.875 8.544C212.875 7.936 212.427 7.632 211.531 7.632H209.803V9.48ZM211.651 12.216C212.131 12.216 212.491 12.14 212.731 11.988C212.971 11.836 213.091 11.6 213.091 11.28C213.091 10.952 212.979 10.708 212.755 10.548C212.539 10.388 212.195 10.308 211.723 10.308H209.803V12.216H211.651ZM218.518 10.416H217.198V13.104H216.046V6.744H217.198V9.432H218.542L220.606 6.744H221.842L219.43 9.804L222.01 13.104H220.654L218.518 10.416ZM223.218 6.744H224.37V11.376L228.27 6.744H229.314V13.104H228.162V8.472L224.274 13.104H223.218V6.744ZM117.26 19.704H118.46V28.104H117.26V19.704ZM122.643 20.748H119.763V19.704H126.711V20.748H123.831V28.104H122.643V20.748ZM127.043 24.312H130.271V25.308H127.043V24.312ZM134.958 28.176C134.31 28.176 133.73 28.036 133.218 27.756C132.714 27.476 132.318 27.092 132.03 26.604C131.742 26.108 131.598 25.548 131.598 24.924C131.598 24.3 131.742 23.744 132.03 23.256C132.318 22.76 132.714 22.376 133.218 22.104C133.73 21.824 134.31 21.684 134.958 21.684C135.534 21.684 136.046 21.8 136.494 22.032C136.95 22.264 137.302 22.6 137.55 23.04L136.674 23.604C136.474 23.3 136.226 23.072 135.93 22.92C135.634 22.768 135.306 22.692 134.946 22.692C134.53 22.692 134.154 22.784 133.818 22.968C133.49 23.152 133.23 23.416 133.038 23.76C132.854 24.096 132.762 24.484 132.762 24.924C132.762 25.372 132.854 25.768 133.038 26.112C133.23 26.448 133.49 26.708 133.818 26.892C134.154 27.076 134.53 27.168 134.946 27.168C135.306 27.168 135.634 27.092 135.93 26.94C136.226 26.788 136.474 26.56 136.674 26.256L137.55 26.808C137.302 27.248 136.95 27.588 136.494 27.828C136.046 28.06 135.534 28.176 134.958 28.176ZM144.934 21.744V28.104H143.782V22.752H140.194V28.104H139.042V21.744H144.934ZM152.911 24.96C152.911 25.048 152.903 25.164 152.887 25.308H147.727C147.799 25.868 148.043 26.32 148.459 26.664C148.883 27 149.407 27.168 150.031 27.168C150.791 27.168 151.403 26.912 151.867 26.4L152.503 27.144C152.215 27.48 151.855 27.736 151.423 27.912C150.999 28.088 150.523 28.176 149.995 28.176C149.323 28.176 148.727 28.04 148.207 27.768C147.687 27.488 147.283 27.1 146.995 26.604C146.715 26.108 146.575 25.548 146.575 24.924C146.575 24.308 146.711 23.752 146.983 23.256C147.263 22.76 147.643 22.376 148.123 22.104C148.611 21.824 149.159 21.684 149.767 21.684C150.375 21.684 150.915 21.824 151.387 22.104C151.867 22.376 152.239 22.76 152.503 23.256C152.775 23.752 152.911 24.32 152.911 24.96ZM149.767 22.656C149.215 22.656 148.751 22.824 148.375 23.16C148.007 23.496 147.791 23.936 147.727 24.48H151.807C151.743 23.944 151.523 23.508 151.147 23.172C150.779 22.828 150.319 22.656 149.767 22.656ZM161.49 27.096V29.628H160.398V28.104H154.698V21.744H155.85V27.096H159.33V21.744H160.482V27.096H161.49ZM162.983 21.744H164.135V28.104H162.983V21.744ZM163.559 20.52C163.335 20.52 163.147 20.448 162.995 20.304C162.851 20.16 162.779 19.984 162.779 19.776C162.779 19.568 162.851 19.392 162.995 19.248C163.147 19.096 163.335 19.02 163.559 19.02C163.783 19.02 163.967 19.092 164.111 19.236C164.263 19.372 164.339 19.544 164.339 19.752C164.339 19.968 164.263 20.152 164.111 20.304C163.967 20.448 163.783 20.52 163.559 20.52ZM168.65 21.684C169.53 21.684 170.202 21.9 170.666 22.332C171.138 22.764 171.374 23.408 171.374 24.264V28.104H170.282V27.264C170.09 27.56 169.814 27.788 169.454 27.948C169.102 28.1 168.682 28.176 168.194 28.176C167.482 28.176 166.91 28.004 166.478 27.66C166.054 27.316 165.842 26.864 165.842 26.304C165.842 25.744 166.046 25.296 166.454 24.96C166.862 24.616 167.51 24.444 168.398 24.444H170.222V24.216C170.222 23.72 170.078 23.34 169.79 23.076C169.502 22.812 169.078 22.68 168.518 22.68C168.142 22.68 167.774 22.744 167.414 22.872C167.054 22.992 166.75 23.156 166.502 23.364L166.022 22.5C166.35 22.236 166.742 22.036 167.198 21.9C167.654 21.756 168.138 21.684 168.65 21.684ZM168.386 27.288C168.826 27.288 169.206 27.192 169.526 27C169.846 26.8 170.078 26.52 170.222 26.16V25.272H168.446C167.47 25.272 166.982 25.6 166.982 26.256C166.982 26.576 167.106 26.828 167.354 27.012C167.602 27.196 167.946 27.288 168.386 27.288ZM178.908 21.744V28.104H177.756V22.752H175.02L174.948 24.168C174.908 25.024 174.832 25.74 174.72 26.316C174.608 26.884 174.424 27.34 174.168 27.684C173.912 28.028 173.556 28.2 173.1 28.2C172.892 28.2 172.656 28.164 172.392 28.092L172.464 27.12C172.568 27.144 172.664 27.156 172.752 27.156C173.072 27.156 173.312 27.016 173.472 26.736C173.632 26.456 173.736 26.124 173.784 25.74C173.832 25.356 173.876 24.808 173.916 24.096L174.024 21.744H178.908ZM181.136 21.744H182.288V28.104H181.136V21.744ZM181.712 20.52C181.488 20.52 181.3 20.448 181.148 20.304C181.004 20.16 180.932 19.984 180.932 19.776C180.932 19.568 181.004 19.392 181.148 19.248C181.3 19.096 181.488 19.02 181.712 19.02C181.936 19.02 182.12 19.092 182.264 19.236C182.416 19.372 182.492 19.544 182.492 19.752C182.492 19.968 182.416 20.152 182.264 20.304C182.12 20.448 181.936 20.52 181.712 20.52ZM187.306 28.176C186.658 28.176 186.078 28.036 185.566 27.756C185.062 27.476 184.666 27.092 184.378 26.604C184.09 26.108 183.946 25.548 183.946 24.924C183.946 24.3 184.09 23.744 184.378 23.256C184.666 22.76 185.062 22.376 185.566 22.104C186.078 21.824 186.658 21.684 187.306 21.684C187.882 21.684 188.394 21.8 188.842 22.032C189.298 22.264 189.65 22.6 189.898 23.04L189.022 23.604C188.822 23.3 188.574 23.072 188.278 22.92C187.982 22.768 187.654 22.692 187.294 22.692C186.878 22.692 186.502 22.784 186.166 22.968C185.838 23.152 185.578 23.416 185.386 23.76C185.202 24.096 185.11 24.484 185.11 24.924C185.11 25.372 185.202 25.768 185.386 26.112C185.578 26.448 185.838 26.708 186.166 26.892C186.502 27.076 186.878 27.168 187.294 27.168C187.654 27.168 187.982 27.092 188.278 26.94C188.574 26.788 188.822 26.56 189.022 26.256L189.898 26.808C189.65 27.248 189.298 27.588 188.842 27.828C188.394 28.06 187.882 28.176 187.306 28.176ZM196.047 22.752H193.719V28.104H192.567V22.752H190.239V21.744H196.047V22.752ZM197.225 21.744H198.377V28.104H197.225V21.744ZM197.801 20.52C197.577 20.52 197.389 20.448 197.237 20.304C197.093 20.16 197.021 19.984 197.021 19.776C197.021 19.568 197.093 19.392 197.237 19.248C197.389 19.096 197.577 19.02 197.801 19.02C198.025 19.02 198.209 19.092 198.353 19.236C198.505 19.372 198.581 19.544 198.581 19.752C198.581 19.968 198.505 20.152 198.353 20.304C198.209 20.448 198.025 20.52 197.801 20.52ZM204.956 24.804C205.78 25.012 206.192 25.528 206.192 26.352C206.192 26.912 205.98 27.344 205.556 27.648C205.14 27.952 204.516 28.104 203.684 28.104H200.624V21.744H203.576C204.328 21.744 204.916 21.888 205.34 22.176C205.764 22.456 205.976 22.856 205.976 23.376C205.976 23.712 205.884 24.004 205.7 24.252C205.524 24.492 205.276 24.676 204.956 24.804ZM201.752 24.48H203.48C203.92 24.48 204.252 24.4 204.476 24.24C204.708 24.08 204.824 23.848 204.824 23.544C204.824 22.936 204.376 22.632 203.48 22.632H201.752V24.48ZM203.6 27.216C204.08 27.216 204.44 27.14 204.68 26.988C204.92 26.836 205.04 26.6 205.04 26.28C205.04 25.952 204.928 25.708 204.704 25.548C204.488 25.388 204.144 25.308 203.672 25.308H201.752V27.216H203.6Z" fill="#010101"/>
<path fill-rule="evenodd" clip-rule="evenodd" d="M43.8462 1.104H0V31.104H43.8462L55.3846 16.104L43.8462 1.104ZM19.6567 14.0752C19.5886 14.0207 19.5215 13.9662 19.4547 13.9121C19.286 13.7753 19.1199 13.6407 18.949 13.5116C18.4829 13.1558 17.9766 12.8725 17.3959 12.7462C16.7549 12.606 16.1076 12.5552 15.4681 12.7493C14.556 13.0249 13.9212 13.6255 13.5015 14.4618C13.1531 15.1579 13.0602 15.8956 13.1516 16.6625C13.2243 17.2631 13.4179 17.8206 13.7725 18.315C14.3176 19.0742 15.0608 19.5131 15.9899 19.6286C16.8261 19.7334 17.6359 19.6286 18.4024 19.2621C18.6641 19.1366 18.6641 19.1343 18.6641 18.8453V18.8401C18.6641 18.7697 18.6643 18.6995 18.6645 18.6294V18.6292V18.629V18.6289C18.6648 18.4889 18.6651 18.3491 18.6641 18.2087C18.6639 18.1805 18.6643 18.1564 18.6646 18.1359C18.6656 18.0774 18.666 18.0474 18.6512 18.0322C18.6355 18.0161 18.6028 18.0165 18.5356 18.0173C18.5187 18.0175 18.4997 18.0177 18.4783 18.0177H16.0472C16.0256 18.0177 16.0065 18.018 15.9895 18.0182H15.9893H15.9892C15.921 18.019 15.8878 18.0194 15.872 18.0031C15.857 17.9877 15.8577 17.9573 15.8589 17.8979C15.8593 17.8781 15.8598 17.8551 15.8598 17.8283C15.8588 17.1815 15.8591 16.5347 15.8595 15.8879L15.8595 15.8825C15.8597 15.5609 15.8598 15.2393 15.8598 14.9176L15.86 14.9014L15.8605 14.882C15.8612 14.8579 15.8619 14.8335 15.8598 14.8098C15.8552 14.7529 15.8753 14.7221 15.9373 14.7282C15.9611 14.7303 15.9856 14.7296 16.0098 14.7289L16.0099 14.7289C16.0219 14.7286 16.0339 14.7282 16.0457 14.7282H22.1915C22.2318 14.7282 22.2658 14.7359 22.2597 14.7867C22.2569 14.8173 22.2762 14.8379 22.2959 14.8589C22.3199 14.8844 22.3445 14.9105 22.3309 14.9561C22.3191 14.9954 22.3221 15.0383 22.3251 15.0814L22.3251 15.0815C22.3264 15.1009 22.3278 15.1203 22.3278 15.1394L22.3277 16.2449C22.3274 17.7187 22.3272 19.1932 22.3309 20.6666C22.3309 20.7867 22.2937 20.8622 22.2024 20.9377C21.058 21.8848 19.7713 22.547 18.3157 22.875C17.4548 23.0691 16.583 23.123 15.7019 23.0521C14.6613 22.969 13.6719 22.7026 12.7583 22.1974C11.0813 21.2703 10.0252 19.8627 9.539 18.0254C9.32531 17.2138 9.26027 16.3868 9.3284 15.5521C9.5839 12.4567 11.761 10.0419 14.6784 9.37041C15.5114 9.17791 16.3523 9.15019 17.2008 9.20717C17.8512 9.25183 18.4907 9.35347 19.1163 9.53828C20.0531 9.81702 20.88 10.2975 21.6325 10.9135C21.7208 10.9859 21.8075 11.0583 21.8927 11.1322C22.0011 11.2246 22.0042 11.277 21.9097 11.3909C21.4359 11.9608 20.962 12.529 20.4867 13.0973C20.2497 13.3822 20.0128 13.6671 19.7744 13.9505L19.7652 13.9625L19.756 13.9748C19.7298 14.0102 19.7019 14.0478 19.6567 14.0752ZM31.7515 9.18092C33.5152 9.19478 35.2216 9.81542 36.654 11.1183C37.7658 12.1316 38.4471 13.3945 38.7196 14.8683C39.0231 16.5084 38.8048 18.0793 37.9903 19.5438C37.024 21.281 35.5499 22.3945 33.6267 22.8981C31.9714 23.3323 30.33 23.2446 28.7459 22.587C26.6834 21.7292 25.3502 20.1891 24.7246 18.0731C24.1656 16.1804 24.3684 14.3401 25.3687 12.6244C26.3427 10.952 27.8091 9.90474 29.6828 9.41654C30.3285 9.24868 30.937 9.18246 31.7515 9.18092ZM31.3334 12.703C30.3656 12.7246 29.3684 13.2759 28.7444 14.4263C28.3201 15.2071 28.221 16.0495 28.3821 16.9196C28.509 17.6065 28.8079 18.2148 29.3034 18.7138C30.0761 19.493 31.0222 19.7995 32.1061 19.6748C33.2272 19.5469 34.0603 18.974 34.5945 17.99C35.0482 17.1522 35.1427 16.2559 34.9305 15.3334C34.5806 13.8026 33.2969 12.6984 31.3334 12.703Z" fill="#FF6B0A"/>
<path fill-rule="evenodd" clip-rule="evenodd" d="M99.2309 1.104H55.3848V31.104H99.2309V1.104ZM69.7687 9.36394V15.9076V22.4204C69.7687 22.4343 69.769 22.4482 69.7694 22.462L69.7694 22.4621V22.4621C69.77 22.4897 69.7707 22.517 69.7687 22.5436C69.7625 22.6191 69.7826 22.6637 69.8693 22.6514C69.89 22.6494 69.9106 22.65 69.9313 22.6507C69.9416 22.6511 69.9519 22.6514 69.9622 22.6514C70.3278 22.6514 70.6936 22.6516 71.0595 22.6518H71.0599H71.0602H71.0629C71.7946 22.6521 72.5268 22.6524 73.2589 22.6514C73.282 22.6514 73.3024 22.6517 73.3205 22.6519C73.391 22.6528 73.4253 22.6532 73.4416 22.6363C73.457 22.6203 73.4563 22.5887 73.455 22.5273V22.5272C73.4545 22.5065 73.454 22.4824 73.454 22.4543V9.38242C73.454 9.37216 73.4537 9.36189 73.4533 9.35162C73.4526 9.33109 73.452 9.31055 73.454 9.29002C73.4618 9.21302 73.4354 9.17298 73.3518 9.18222C73.3354 9.18426 73.3182 9.18359 73.3008 9.18291L73.2949 9.18268C73.2881 9.18243 73.2813 9.18222 73.2744 9.18222C72.905 9.18222 72.5354 9.18205 72.1658 9.18188H72.1656H72.1655C71.4258 9.18153 70.6859 9.18119 69.9467 9.18222C69.9248 9.18222 69.9056 9.18193 69.8887 9.18168H69.8886C69.8277 9.18077 69.7971 9.18031 69.7819 9.19538C69.7667 9.21057 69.7672 9.24155 69.7681 9.30375C69.7684 9.32123 69.7687 9.34118 69.7687 9.36394ZM88.1242 9.18267H82.6272C80.7953 9.18267 78.9635 9.18267 77.1332 9.18113C77.1257 9.18113 77.1182 9.18118 77.1107 9.18125C77.1043 9.18131 77.098 9.18139 77.0916 9.18147C77.0643 9.18181 77.0371 9.18215 77.0093 9.18113C76.9474 9.17805 76.9257 9.20731 76.9303 9.26429C76.9314 9.28169 76.931 9.2984 76.9307 9.31534C76.9305 9.3239 76.9303 9.33251 76.9303 9.34129V12.4676L76.9302 12.5C76.9299 12.567 76.9298 12.6001 76.9462 12.6162C76.9622 12.6319 76.9939 12.6316 77.0563 12.6311L77.0991 12.6308H80.5522C80.665 12.6308 80.7207 12.6308 80.7483 12.6587C80.7752 12.6859 80.7752 12.7398 80.7752 12.8464V22.4855C80.7752 22.504 80.775 22.5204 80.7747 22.535V22.5351C80.774 22.5903 80.7735 22.6193 80.7878 22.6344C80.8034 22.6509 80.8368 22.6508 80.9067 22.6504L80.9409 22.6503H80.9873H84.2546C84.3586 22.6503 84.41 22.6503 84.4355 22.6246C84.4606 22.5993 84.4606 22.5493 84.4606 22.4501V12.811C84.4606 12.7902 84.4603 12.7718 84.46 12.7555L84.46 12.7553C84.4591 12.6958 84.4586 12.6648 84.4739 12.6488C84.4904 12.6314 84.5255 12.6316 84.5988 12.6321L84.6448 12.6324H88.1599C88.3116 12.6324 88.3116 12.6324 88.3132 12.483V12.4368V9.37209C88.3132 9.35079 88.3134 9.33185 88.3136 9.31502V9.31485C88.3144 9.24718 88.3148 9.21355 88.2982 9.19708C88.2818 9.18081 88.2488 9.18126 88.1833 9.18216H88.1832C88.1659 9.1824 88.1464 9.18267 88.1242 9.18267Z" fill="#010101"/>
</svg>
